<?xml version="1.0" standalone="no"?>
<!DOCTYPE svg PUBLIC "-//W3C//DTD SVG 20010904//EN"
 "http://www.w3.org/TR/2001/REC-SVG-20010904/DTD/svg10.dtd">
<svg version="1.0" xmlns="http://www.w3.org/2000/svg"
 width="920.000000pt" height="920.000000pt" viewBox="0 0 920.000000 920.000000"
 preserveAspectRatio="xMidYMid meet">

<g transform="translate(0.000000,920.000000) scale(0.100000,-0.100000)"
fill="#000000" stroke="none">
<path d="M1378 9189 c-258 -38 -535 -157 -753 -324 -89 -68 -234 -217 -307
-315 -172 -234 -280 -518 -308 -815 -13 -141 -12 -6128 1 -6265 36 -369 201
-720 463 -983 243 -244 546 -397 906 -459 60 -10 703 -13 3225 -13 l3150 0
117 22 c335 65 619 215 856 454 270 273 427 613 462 999 13 150 12 6137 -1
6265 -38 361 -192 691 -444 953 -250 260 -553 419 -910 477 -78 13 -517 15
-3245 14 -1735 -1 -3181 -5 -3212 -10z m3642 -1623 c410 -58 847 -222 1199
-450 724 -470 1198 -1205 1337 -2076 24 -150 29 -631 8 -795 -130 -1036 -793
-1934 -1745 -2362 -256 -115 -612 -212 -899 -244 -153 -17 -518 -15 -673 5
-678 86 -1280 380 -1757 856 -458 458 -746 1032 -847 1690 -13 88 -17 180 -18
395 0 367 10 464 80 750 122 499 391 981 753 1349 269 273 501 442 837 607
330 161 666 255 1050 293 99 10 566 -3 675 -18z"/>
<path d="M4340 7364 c-546 -65 -990 -239 -1409 -551 -153 -114 -420 -382 -534
-535 -767 -1027 -746 -2412 51 -3403 454 -564 1080 -911 1825 -1011 148 -20
478 -23 622 -5 173 21 401 70 548 118 1168 376 1948 1470 1920 2693 -13 582
-204 1132 -560 1608 -114 153 -381 421 -534 535 -301 224 -653 393 -993 476
-250 61 -347 73 -636 76 -146 2 -281 1 -300 -1z m505 -434 c328 -36 676 -154
964 -325 292 -175 610 -493 786 -786 169 -283 276 -592 320 -922 17 -135 20
-409 5 -542 -61 -533 -302 -1028 -681 -1402 -132 -129 -214 -197 -362 -294
-307 -204 -664 -330 -1059 -374 -75 -8 -360 -8 -435 0 -397 45 -752 170 -1060
374 -148 97 -230 165 -362 294 -449 442 -691 1023 -691 1657 0 885 489 1678
1282 2081 232 117 489 197 758 234 115 16 411 19 535 5z"/>
<path d="M4530 6479 c-67 -11 -200 -75 -258 -124 -103 -89 -177 -238 -188
-379 -21 -260 159 -504 421 -571 267 -68 564 100 646 364 62 202 14 406 -131
551 -132 134 -302 189 -490 159z"/>
<path d="M3219 5540 c-206 -32 -372 -170 -439 -366 -28 -78 -36 -196 -21 -276
62 -314 367 -507 675 -428 105 26 168 62 248 141 216 211 217 557 3 773 -120
121 -299 181 -466 156z"/>
<path d="M5850 5540 c-215 -33 -392 -195 -451 -410 -18 -67 -15 -205 5 -275
40 -137 141 -267 257 -333 69 -39 192 -72 268 -72 305 1 551 247 551 550 0
142 -50 266 -149 372 -32 35 -84 78 -115 97 -99 59 -251 89 -366 71z"/>
<path d="M4493 4946 c-59 -19 -104 -49 -153 -102 -67 -72 -85 -122 -85 -234 0
-82 4 -103 26 -150 33 -70 99 -136 169 -169 47 -22 69 -26 150 -26 81 0 103 4
150 26 72 34 136 97 168 167 23 49 27 70 27 152 0 114 -19 163 -91 240 -67 72
-137 103 -238 107 -50 2 -97 -2 -123 -11z m209 -184 c75 -47 102 -155 59 -239
-65 -128 -257 -130 -320 -5 -37 75 -34 132 11 198 55 80 163 100 250 46z"/>
<path d="M3655 4021 c-91 -26 -163 -69 -236 -141 -218 -215 -215 -572 5 -778
110 -103 233 -152 379 -152 253 0 467 165 532 410 17 64 19 195 4 260 -43 189
-212 360 -400 405 -84 19 -209 18 -284 -4z"/>
<path d="M5283 4026 c-120 -29 -233 -107 -309 -212 -156 -218 -132 -516 56
-704 108 -108 234 -160 387 -160 193 0 359 91 465 255 110 169 110 411 0 580
-75 116 -197 206 -328 240 -69 18 -199 18 -271 1z"/>
</g>
</svg>
